HIERARCHY
ROOT hip
{
	OFFSET 0.000000 0.000000 0.000000
	CHANNELS 6 Xposition Yposition Zposition Xrotation Zrotation Yrotation 
	JOINT abdomen
	{
		OFFSET 0.000000 3.422050 0.000000
		CHANNELS 3 Xrotation Zrotation Yrotation 
		JOINT chest
		{
			OFFSET 0.000000 8.486693 -0.684411
			CHANNELS 3 Xrotation Zrotation Yrotation 
			JOINT neck
			{
				OFFSET 0.000000 10.266162 -0.273764
				CHANNELS 3 Xrotation Zrotation Yrotation 
				JOINT head
				{
					OFFSET 0.000000 3.148285 0.000000
					CHANNELS 3 Xrotation Zrotation Yrotation 
					End Site
					{
						OFFSET 0.000000 3.148289 0.000000
					}
				}
			}
			JOINT lCollar
			{
				OFFSET 3.422053 6.707223 -0.821293
				CHANNELS 3 Yrotation Zrotation Xrotation 
				JOINT lShldr
				{
					OFFSET 3.285171 0.000000 0.000000
					CHANNELS 3 Zrotation Yrotation Xrotation 
					JOINT lForeArm
					{
						OFFSET 10.129278 0.000000 0.000000
						CHANNELS 3 Yrotation Zrotation Xrotation 
						JOINT lHand
						{
							OFFSET 8.486692 0.000000 0.000000
							CHANNELS 3 Zrotation Yrotation Xrotation 
							End Site
							{
								OFFSET 4.106464 0.000000 0.000000
							}
						}
					}
				}
			}
			JOINT rCollar
			{
				OFFSET -3.558935 6.707223 -0.821293
				CHANNELS 3 Yrotation Zrotation Xrotation 
				JOINT rShldr
				{
					OFFSET -3.148289 0.000000 0.000000
					CHANNELS 3 Zrotation Yrotation Xrotation 
					JOINT rForeArm
					{
						OFFSET -10.266159 0.000000 0.000000
						CHANNELS 3 Yrotation Zrotation Xrotation 
						JOINT rHand
						{
							OFFSET -8.349810 0.000000 0.000000
							CHANNELS 3 Zrotation Yrotation Xrotation 
							End Site
							{
								OFFSET -4.106464 0.000000 0.000000
							}
						}
					}
				}
			}
		}
	}
	JOINT lThigh
	{
		OFFSET 5.338403 -1.642589 1.368821
		CHANNELS 3 Xrotation Zrotation Yrotation 
		JOINT lShin
		{
			OFFSET -2.053232 -20.121670 0.000000
			CHANNELS 3 Xrotation Zrotation Yrotation 
			JOINT lFoot
			{
				OFFSET 0.000000 -19.300380 -1.231939
				CHANNELS 3 Xrotation Yrotation Zrotation 
				End Site
				{
					OFFSET 0.000000 -2.463878 4.653993
				}
			}
		}
	}
	JOINT rThigh
	{
		OFFSET -5.338403 -1.642589 1.368821
		CHANNELS 3 Xrotation Zrotation Yrotation 
		JOINT rShin
		{
			OFFSET 2.053232 -20.121670 0.000000
			CHANNELS 3 Xrotation Zrotation Yrotation 
			JOINT rFoot
			{
				OFFSET 0.000000 -19.300380 -1.231939
				CHANNELS 3 Xrotation Yrotation Zrotation 
				End Site
				{
					OFFSET 0.000000 -2.463878 4.653993
				}
			}
		}
	}
}
MOTION
Frames: 11
Frame Time: 0.033325
19.995884 5.358493 1.707919 -87.203590 0.000000 0.000000 -7.462860 0.040131 -0.002617 35.475288 -0.066068 -0.553908 -4.706302 0.000000 0.000000 -25.540586 0.000000 0.000000 -24.216902 4.711050 15.750149 -56.929001 -4.735488 10.273082 -27.175854 -11.691510 8.388254 -16.222248 -2.882405 34.674427 24.265663 -4.345462 15.541078 57.185310 4.865637 10.324173 26.689472 11.436759 8.501382 16.271086 3.154758 34.760475 -147.619904 39.538246 0.164553 123.748047 5.021616 -10.502940 57.033455 5.742591 3.228957 -146.017761 -49.802502 0.010193 130.611908 -11.515553 -26.377457 57.060715 -5.750345 -3.247739 
19.995884 5.344976 1.646642 -86.405083 0.000000 0.000000 -7.462860 0.040131 -0.002617 34.478268 -0.066064 -0.553994 -5.089260 0.000000 0.000000 -26.119415 0.000000 0.000000 -24.108311 3.355609 15.910131 -56.152405 -4.796913 10.171413 -26.177788 -11.189869 8.580747 -16.125643 -3.550373 34.912205 24.151829 -2.952042 15.705213 56.355141 4.916949 10.215614 25.709934 10.931609 8.687541 16.187527 3.821784 34.996822 -148.236816 40.078812 0.325198 123.498657 5.040010 -11.002288 57.033455 5.742591 3.228957 -146.017746 -49.602531 0.010033 129.623337 -11.381802 -24.948570 57.060715 -5.750345 -3.247739 
19.995884 5.331460 1.585366 -85.605972 0.000000 0.000000 -7.462860 0.040131 -0.002617 33.480015 -0.066061 -0.554079 -5.471980 0.000000 0.000000 -26.697426 0.000000 0.000000 -23.995789 1.997341 16.072886 -55.375057 -4.857002 10.068834 -25.181652 -10.684266 8.764255 -16.031677 -4.219154 35.149178 24.033821 -1.555542 15.872366 55.524101 4.966730 10.106217 24.732281 10.422678 8.864829 16.106611 4.489567 35.232559 -148.857330 40.621243 0.479619 123.249016 5.056242 -11.501902 57.033455 5.742591 3.228957 -146.017715 -49.402550 0.009877 128.635941 -11.223430 -23.518599 57.060715 -5.750345 -3.247739 
19.995884 5.317943 1.524090 -84.806313 0.000000 0.000000 -7.462860 0.040131 -0.002617 32.480698 -0.066060 -0.554165 -5.854455 0.000000 0.000000 -27.274570 0.000000 0.000000 -23.879230 0.636641 16.238560 -54.597019 -4.915736 9.965369 -24.187508 -10.174953 8.938728 -15.940355 -4.888686 35.385418 23.911518 -0.156396 16.042711 54.692291 5.014958 9.996017 23.756559 9.910200 9.033201 16.028334 5.158040 35.467697 -149.481567 41.165394 0.627624 122.999168 5.070310 -12.001748 57.033455 5.742591 3.228957 -146.017685 -49.202560 0.009721 127.650841 -11.040461 -22.088633 57.060711 -5.750345 -3.247739 
19.995884 5.304426 1.462813 -84.006180 0.000000 0.000000 -7.462860 0.040131 -0.002617 31.480469 -0.066060 -0.554250 -6.236677 0.000000 0.000000 -27.850840 0.000000 0.000000 -23.758524 -0.726084 16.407299 -53.818386 -4.973098 9.861048 -23.195375 -9.662166 9.104116 -15.851662 -5.558903 35.620930 23.784794 1.244957 16.216404 53.859810 5.061617 9.885051 22.782801 9.394419 9.192617 15.952689 5.827138 35.702297 -150.109680 41.711159 0.769032 122.749130 5.082210 -12.501794 57.033455 5.742591 3.228957 -146.017654 -49.002567 0.009561 126.669067 -10.832950 -20.659721 57.060711 -5.750345 -3.247739 
19.995884 5.290910 1.401537 -83.205650 0.000000 0.000000 -7.462860 0.040131 -0.002617 30.479473 -0.066062 -0.554336 -6.618637 0.000000 0.000000 -28.426201 0.000000 0.000000 -23.633553 -2.090429 16.579266 -53.039219 -5.029067 9.755895 -22.205309 -9.146160 9.260386 -15.765605 -6.229742 35.855785 23.653498 2.648073 16.393614 53.026733 5.106688 9.773344 21.811033 8.875574 9.343040 15.879682 6.496801 35.936394 -150.741776 42.258400 0.903650 122.498940 5.091936 -13.002007 57.033455 5.742591 3.228957 -146.017624 -48.802563 0.009406 125.691727 -10.601045 -19.232933 57.060715 -5.750345 -3.247739 
19.995884 5.277393 1.340260 -82.404816 0.000000 0.000000 -7.462860 0.040131 -0.002617 29.477867 -0.066065 -0.554421 -7.000325 0.000000 0.000000 -29.000626 0.000000 0.000000 -23.504169 -3.455976 16.754610 -52.259598 -5.083625 9.649939 -21.217329 -8.627185 9.407497 -15.682176 -6.901137 36.090012 23.517498 4.052502 16.574528 52.193169 5.150156 9.660940 20.841274 8.353907 9.484438 15.809303 7.166963 36.170017 -151.378006 42.806984 1.031280 122.248627 5.099488 -13.502352 57.033455 5.742591 3.228957 -146.017609 -48.602570 0.009253 124.719803 -10.344924 -17.809294 57.060715 -5.750345 -3.247739 
19.995884 5.263876 1.278984 -81.603745 0.000000 0.000000 -7.462860 0.040131 -0.002617 28.475801 -0.066070 -0.554507 -6.532178 0.000000 0.000000 -28.296015 0.000000 0.000000 -23.370266 -4.822314 16.933514 -51.479588 -5.136757 9.543209 -20.231468 -8.105492 9.545429 -15.601377 -7.573023 36.323666 23.376629 5.457790 16.759329 51.359196 5.192001 9.547867 19.873547 7.829665 9.616791 15.741567 7.837563 36.403244 -152.018524 43.356804 1.151717 121.998215 5.104861 -14.002795 57.033455 5.742591 3.228957 -146.017578 -48.402550 0.009099 123.754356 -10.064851 -16.389830 57.060715 -5.750345 -3.247739 
19.995884 5.250360 1.217708 -80.802521 0.000000 0.000000 -7.462860 0.040131 -0.002617 27.473436 -0.066076 -0.554593 -6.063627 0.000000 0.000000 -27.589996 0.000000 0.000000 -23.231674 -6.189020 17.116148 -50.699287 -5.188446 9.435735 -19.247747 -7.581333 9.674155 -15.523200 -8.245337 36.556770 23.230742 6.863482 16.948219 50.524914 5.232212 9.434165 18.907873 7.303096 9.740082 15.676464 8.508536 36.636097 -152.663483 43.907703 1.264752 121.747757 5.108058 -14.503309 57.033455 5.742591 3.228957 -146.017563 -48.202534 0.008945 122.796356 -9.761132 -14.975521 57.060715 -5.750345 -3.247739 
19.995884 5.236843 1.156431 -80.001213 0.000000 0.000000 -7.462860 0.040131 -0.002617 26.470901 -0.066084 -0.554678 -5.594688 0.000000 0.000000 -26.882639 0.000000 0.000000 -23.088243 -7.555673 17.302691 -49.918747 -5.238678 9.327544 -18.266186 -7.054965 9.793666 -15.447646 -8.918013 36.789379 23.079643 8.269115 17.141403 49.690414 5.270773 9.319866 17.944262 6.774447 9.854297 15.614000 9.179816 36.868610 -153.313080 44.459568 1.370164 121.497253 5.109075 -15.003855 57.033455 5.742591 3.228957 -146.017532 -48.002529 0.008793 121.846764 -9.434133 -13.567325 57.060715 -5.750345 -3.247739 
19.995884 5.223327 1.095155 -79.199913 0.000000 0.000000 -7.462860 0.040131 -0.002617 25.468378 -0.066093 -0.554763 -5.125376 0.000000 0.000000 -26.173985 0.000000 0.000000 -22.939821 -8.921853 17.493349 -49.138035 -5.287435 9.218664 -17.286810 -6.526648 9.903954 -15.374721 -9.590986 37.021542 22.923147 9.674227 17.339090 48.855785 5.307673 9.205008 16.982731 6.243970 9.959433 15.554180 9.851341 37.100842 -153.967468 45.012260 1.467732 121.246758 5.107912 -15.504400 57.033455 5.742591 3.228957 -146.017502 -47.802505 0.008640 120.906525 -9.084282 -12.166169 57.060715 -5.750345 -3.247739 
